<svg xmlns="http://www.w3.org/2000/svg" width="32" height="32" viewBox="0 0 32 32">
  <rect width="32" height="32" rx="8" fill="#000"/>
  <g transform="translate(6 6)" stroke="#fff" stroke-width="1.5" stroke-linecap="round" stroke-linejoin="round" fill="none">
    <rect x="4" y="4" width="12" height="12" rx="2"/>
    <rect x="7" y="7" width="6" height="6" rx="1"/>
    <line x1="10" y1="0" x2="10" y2="4"/>
    <line x1="7" y1="0" x2="7" y2="4"/>
    <line x1="13" y1="0" x2="13" y2="4"/>
    <line x1="10" y1="16" x2="10" y2="20"/>
    <line x1="7" y1="16" x2="7" y2="20"/>
    <line x1="13" y1="16" x2="13" y2="20"/>
    <line x1="0" y1="10" x2="4" y2="10"/>
    <line x1="0" y1="7" x2="4" y2="7"/>
    <line x1="0" y1="13" x2="4" y2="13"/>
    <line x1="16" y1="10" x2="20" y2="10"/>
    <line x1="16" y1="7" x2="20" y2="7"/>
    <line x1="16" y1="13" x2="20" y2="13"/>
  </g>
</svg>
